<?xml version="1.0" encoding="UTF-8"?>
<!-- Generator: Adobe Illustrator 23.0.3, SVG Export Plug-In . SVG Version: 6.00 Build 0)  -->
<svg version="1.1" xmlns="http://www.w3.org/2000/svg" xmlns:xlink="http://www.w3.org/1999/xlink" x="0px" y="0px" viewBox="0 0 1080 1080" style="enable-background:new 0 0 1080 1080;" xml:space="preserve">
<style type="text/css">
	.st0{display:none;}
	.st1{display:inline;}
	.st2{fill:#FFFFFF;}
	.st3{display:inline;fill:#FFFFFF;}
</style>
<g id="Layer_1">
</g>
<g id="Layer_5" class="st0">
	<polygon class="st1" points="149.69,191.7 239.56,191.7 239.56,204.54 162.53,204.54 162.53,267.67 245.98,267.67 245.98,280.86    149.69,280.86  "/>
</g>
<g id="Layer_3" class="st0">
	<polygon class="st1" points="125.8,168.52 263.45,168.52 263.45,229.15 174.3,229.15 174.3,216.31 250.62,216.31 250.62,181.36    138.28,181.36 138.28,395.33 125.8,395.33  "/>
</g>
<g id="Layer_4">
	<polygon class="st0" points="101.91,168.52 114.75,168.52 114.75,405.32 149.69,405.32 149.69,316.16 233.14,316.16 233.14,304.39    150.05,304.39 150.05,291.56 245.98,291.56 245.98,329 162.53,329 162.53,418.15 101.91,418.15  "/>
	<g class="st0">
		<path class="st1" d="M303.51,413.19c-7.1,0-14.06-1.42-20.64-4.26c-6.32-2.71-12-6.45-16.9-11.35    c-4.77-4.9-8.64-10.45-11.35-16.77c-2.71-6.45-4.13-13.29-4.13-20.25c0-7.1,1.42-13.93,4.26-20.38    c2.71-6.19,6.58-11.87,11.48-16.64c4.9-4.9,10.58-8.64,16.9-11.35c6.58-2.71,13.54-4.13,20.77-4.13    c14.06,0,27.22,5.55,37.02,15.61c4.77,4.77,8.38,10.45,10.96,16.64c2.71,6.45,4,13.29,4,20.25c0,7.09-1.29,13.93-4,20.25    c-2.58,6.32-6.32,12-11.09,16.77C330.86,407.65,317.7,413.19,303.51,413.19z M303.9,320.96c-5.42,0-10.71,1.03-15.74,3.1    c-4.9,2.06-9.16,4.9-12.9,8.64c-3.74,3.61-6.71,7.87-8.64,12.64c-2.19,4.77-3.23,9.93-3.23,15.22c0,5.29,1.03,10.32,3.1,15.22    c2.06,4.77,4.9,9.03,8.64,12.64c7.61,7.61,17.67,11.87,28.38,11.87c10.71,0,20.64-4.26,28.12-11.74    c3.61-3.61,6.32-7.87,8.39-12.64c1.94-4.9,2.97-10.06,2.97-15.35c0-10.58-4-20.51-11.22-27.86    C324.41,325.09,314.48,320.96,303.9,320.96z"/>
		<path class="st1" d="M434.71,410.87c-2.97,0-5.68-2.19-6.32-5.29c-1.55-7.87-4-14.19-7.35-18.96c-2.45-3.61-5.55-6.19-9.03-7.87    c-2.71-1.42-5.42-1.94-7.48-2.06c-1.68,0-3.48,0.13-5.29,0.13c-3.22,0-6.06-2.58-6.32-5.93c-0.39-3.23,1.94-6.32,5.16-6.84    c0.52-0.13,2.97-0.65,6.58-0.39c6.71-0.39,12-1.81,15.87-4c5.68-3.22,8.39-8.26,8.39-15.87c0-5.16-1.03-9.42-2.84-12.77    c-1.42-2.45-3.48-4.39-5.93-5.93c-4.64-2.58-9.42-2.71-9.8-2.71h-31.86v82.04c0,3.48-2.84,6.45-6.45,6.45    c-3.48,0-6.45-2.97-6.45-6.45v-88.49c0-3.61,2.97-6.45,6.45-6.45h38.31c0.52,0,3.61,0,7.61,1.03c5.68,1.42,10.71,4.13,14.58,8    c2.84,2.84,5.16,6.32,6.71,10.32c1.68,4.39,2.58,9.42,2.58,14.96c0,12.13-5.16,21.54-14.83,27.09c-0.65,0.39-1.29,0.65-2.06,1.03    c2.32,1.94,4.39,4.13,6.32,6.71c4.64,6.32,7.87,14.58,9.8,24.51c0.65,3.48-1.55,6.97-5.03,7.61    C435.48,410.74,435.09,410.87,434.71,410.87z"/>
		<path class="st1" d="M545.64,411c-3.48,0-6.58-2.97-6.58-6.45v-65.14l-31.73,53.28c-1.16,1.68-3.1,2.58-5.16,2.58    c-2.06,0-4-0.9-5.29-2.58l-31.86-53.28v65.14c0,3.48-2.84,6.45-6.45,6.45c-3.48,0-6.45-2.97-6.45-6.45V315.8    c0-2.84,1.81-5.29,4.52-6.19c2.58-0.9,5.55,0.13,7.22,2.32l38.31,64.63l38.18-64.63c1.81-2.19,4.64-3.23,7.35-2.32    c2.58,0.9,4.39,3.35,4.39,6.19v88.75C552.09,408.03,549.26,411,545.64,411z"/>
		<path class="st1" d="M605.11,412.55c-9.42,0-17.54-1.94-24.12-5.8c-5.68-3.23-10.06-7.74-13.29-13.54    c-5.29-9.8-5.29-19.99-5.29-23.35v-53.79c0-3.48,2.97-6.45,6.45-6.45c3.61,0,6.45,2.97,6.45,6.45v53.79c0,2.58,0,10.32,3.74,17.16    c2.06,3.74,4.77,6.58,8.38,8.64c4.51,2.58,10.45,4,17.67,4s13.16-1.42,17.67-4c3.48-2.06,6.32-4.9,8.26-8.51    c3.74-6.97,3.74-14.71,3.74-17.29v-53.79c0-3.48,2.97-6.45,6.45-6.45c3.61,0,6.45,2.97,6.45,6.45v53.79c0,3.35,0,13.67-5.29,23.35    C637.62,402.1,627.3,412.55,605.11,412.55z"/>
		<path class="st1" d="M720.7,411h-56.24c-3.48,0-6.45-2.84-6.45-6.45v-88.49c0-3.61,2.97-6.45,6.45-6.45    c3.61,0,6.45,2.84,6.45,6.45v82.04h49.79c3.61,0,6.45,2.84,6.45,6.45C727.15,408.16,724.31,411,720.7,411z"/>
		<path class="st1" d="M827.25,410.48c-2.97,1.29-6.84,0.26-8.64-3.22l-8.9-19.87c-8.38-2.06-16.77-2.19-24.9-0.39    c-6.58,1.29-13.03,3.74-19.35,7.61c-6.45,4-13.16,9.29-18.06,14.06c-2.45,2.45-5.68,3.22-8.38,1.55    c-2.84-1.81-2.45-5.42-1.16-8.38l40.76-88.49c1.16-2.32,3.35-3.74,5.93-3.74c2.45,0,4.9,1.55,5.8,3.74l40.12,88.49    C831.89,405.2,830.47,408.94,827.25,410.48z M784.42,331.54l-24.77,52.76c6.84-3.87,15.87-7.35,23.09-8.77    c6.97-1.55,14.06-1.81,21.16-1.16L784.42,331.54z"/>
		<path class="st1" d="M902.46,316.06c0,3.61-2.84,6.45-6.45,6.45h-28.25v82.04c0,3.61-2.97,6.45-6.45,6.45    c-3.61,0-6.45-2.84-6.45-6.45v-82.04h-28.38c-3.61,0-6.45-2.84-6.45-6.45s2.84-6.45,6.45-6.45h69.53    C899.62,309.61,902.46,312.45,902.46,316.06z"/>
		<path class="st1" d="M987.34,404.55c0,3.61-2.84,6.45-6.45,6.45h-61.66c-3.48,0-6.45-2.84-6.45-6.45v-88.49    c0-3.61,2.97-6.45,6.45-6.45h60.37c3.61,0,6.45,2.84,6.45,6.45s-2.84,6.45-6.45,6.45h-53.92v31.09h47.73    c3.61,0,6.45,2.97,6.45,6.45c0,3.61-2.84,6.45-6.45,6.45h-47.73v31.6h55.21C984.5,398.1,987.34,400.94,987.34,404.55z"/>
	</g>
</g>
<g id="Layer_6" class="st0">
	<g class="st1">
		<path class="st2" d="M191.99,586.03c0-7.02,1.73-13.81,5.19-20.38s8.36-11.58,14.7-15.04c6.34-3.46,13.42-5.19,21.24-5.19    c12.08,0,21.98,3.92,29.7,11.77c7.72,7.85,11.58,17.76,11.58,29.74c0,12.08-3.9,22.1-11.69,30.04    c-7.8,7.95-17.61,11.92-29.44,11.92c-7.32,0-14.3-1.65-20.94-4.96c-6.64-3.31-11.69-8.16-15.15-14.55    C193.72,602.98,191.99,595.2,191.99,586.03z M213.64,587.16c0,7.92,1.88,13.99,5.64,18.2s8.4,6.32,13.91,6.32    c5.51,0,10.14-2.11,13.87-6.32c3.73-4.21,5.6-10.33,5.6-18.35c0-7.82-1.87-13.84-5.6-18.05c-3.73-4.21-8.36-6.32-13.87-6.32    c-5.52,0-10.15,2.11-13.91,6.32S213.64,579.23,213.64,587.16z"/>
		<path class="st2" d="M311.17,627.08h-21.13v-79.86h19.63v11.35c3.36-5.36,6.38-8.9,9.06-10.6c2.68-1.7,5.73-2.56,9.14-2.56    c4.81,0,9.45,1.33,13.91,3.99l-6.54,18.42c-3.56-2.3-6.87-3.46-9.93-3.46c-2.96,0-5.46,0.82-7.52,2.44    c-2.06,1.63-3.67,4.58-4.85,8.84c-1.18,4.26-1.77,13.19-1.77,26.77V627.08z"/>
		<path class="st2" d="M349.3,547.23h19.48v10.9c6.97-8.47,15.26-12.71,24.89-12.71c5.11,0,9.55,1.05,13.31,3.16    s6.84,5.29,9.25,9.55c3.51-4.26,7.29-7.44,11.35-9.55s8.4-3.16,13.01-3.16c5.87,0,10.83,1.19,14.89,3.57s7.09,5.88,9.1,10.49    c1.45,3.41,2.18,8.92,2.18,16.54v51.06h-21.13v-45.64c0-7.92-0.73-13.03-2.18-15.34c-1.96-3.01-4.96-4.51-9.02-4.51    c-2.96,0-5.74,0.9-8.35,2.71c-2.61,1.8-4.49,4.45-5.64,7.93c-1.15,3.49-1.73,8.99-1.73,16.51v38.35h-21.13v-43.76    c0-7.77-0.38-12.78-1.13-15.04s-1.92-3.94-3.5-5.04c-1.58-1.1-3.72-1.65-6.43-1.65c-3.26,0-6.19,0.88-8.8,2.63    c-2.61,1.76-4.47,4.29-5.6,7.59c-1.13,3.31-1.69,8.8-1.69,16.47v38.8H349.3V547.23z"/>
		<path class="st2" d="M540.37,627.08v-11.96c-2.91,4.26-6.73,7.62-11.47,10.08c-4.74,2.46-9.74,3.68-15,3.68    c-5.36,0-10.18-1.18-14.44-3.53c-4.26-2.36-7.34-5.67-9.25-9.93c-1.91-4.26-2.86-10.15-2.86-17.67v-50.53h21.13v36.7    c0,11.23,0.39,18.11,1.17,20.64c0.78,2.53,2.19,4.54,4.25,6.02c2.05,1.48,4.66,2.22,7.82,2.22c3.61,0,6.84-0.99,9.7-2.97    c2.86-1.98,4.81-4.44,5.87-7.37c1.05-2.93,1.58-10.11,1.58-21.54v-33.69h21.13v79.86H540.37z"/>
		<path class="st2" d="M581.88,627.08V516.85H603v110.24H581.88z"/>
		<path class="st2" d="M640.45,571.59l-19.17-3.46c2.15-7.72,5.87-13.43,11.13-17.14c5.26-3.71,13.08-5.56,23.46-5.56    c9.42,0,16.44,1.12,21.05,3.35c4.61,2.23,7.86,5.06,9.74,8.5c1.88,3.43,2.82,9.74,2.82,18.91l-0.22,24.66    c0,7.02,0.34,12.19,1.02,15.53c0.68,3.33,1.94,6.91,3.8,10.71h-20.9c-0.55-1.4-1.23-3.48-2.03-6.24c-0.35-1.25-0.6-2.08-0.75-2.48    c-3.61,3.51-7.47,6.14-11.58,7.9s-8.5,2.63-13.16,2.63c-8.22,0-14.7-2.23-19.44-6.69c-4.74-4.46-7.11-10.1-7.11-16.92    c0-4.51,1.08-8.54,3.23-12.07c2.15-3.54,5.18-6.24,9.06-8.12c3.88-1.88,9.49-3.52,16.81-4.93c9.88-1.85,16.72-3.58,20.53-5.19    v-2.11c0-4.06-1-6.96-3.01-8.68c-2.01-1.73-5.79-2.59-11.35-2.59c-3.76,0-6.69,0.74-8.8,2.22    C643.46,565.29,641.75,567.88,640.45,571.59z M668.72,588.73c-2.71,0.9-6.99,1.98-12.86,3.23s-9.7,2.48-11.51,3.68    c-2.76,1.96-4.13,4.44-4.13,7.44c0,2.96,1.1,5.51,3.31,7.67c2.21,2.16,5.01,3.23,8.42,3.23c3.81,0,7.44-1.25,10.9-3.76    c2.56-1.9,4.24-4.24,5.04-6.99c0.55-1.8,0.83-5.24,0.83-10.3V588.73z"/>
		<path class="st2" d="M746.93,547.23v16.84h-14.44v32.18c0,6.52,0.14,10.31,0.41,11.39s0.9,1.97,1.88,2.67    c0.98,0.7,2.17,1.05,3.57,1.05c1.96,0,4.79-0.68,8.5-2.03l1.8,16.39c-4.91,2.11-10.48,3.16-16.69,3.16    c-3.81,0-7.24-0.64-10.3-1.92c-3.06-1.28-5.3-2.93-6.73-4.96c-1.43-2.03-2.42-4.77-2.97-8.23c-0.45-2.46-0.68-7.42-0.68-14.89    v-34.82h-9.7v-16.84h9.7v-15.87l21.21-12.33v28.2H746.93z"/>
		<path class="st2" d="M807.84,601.67l21.05,3.53c-2.71,7.72-6.98,13.6-12.82,17.63s-13.15,6.05-21.92,6.05    c-13.89,0-24.16-4.54-30.83-13.61c-5.26-7.27-7.89-16.44-7.89-27.52c0-13.23,3.46-23.6,10.38-31.09s15.66-11.24,26.24-11.24    c11.88,0,21.26,3.92,28.12,11.77c6.87,7.85,10.15,19.87,9.85,36.06h-52.94c0.15,6.27,1.85,11.14,5.11,14.63    c3.26,3.49,7.32,5.23,12.18,5.23c3.31,0,6.09-0.9,8.35-2.71S806.68,605.68,807.84,601.67z M809.04,580.31    c-0.15-6.12-1.73-10.76-4.74-13.95c-3.01-3.18-6.67-4.77-10.98-4.77c-4.61,0-8.42,1.68-11.43,5.04    c-3.01,3.36-4.49,7.92-4.44,13.69H809.04z"/>
		<path class="st2" d="M983.87,627.08h-24.21l-9.63-25.04h-44.06l-9.1,25.04h-23.61l42.94-110.24h23.54L983.87,627.08z     M942.89,583.47l-15.19-40.91l-14.89,40.91H942.89z"/>
		<path class="st2" d="M995,627.08V516.85h22.26v110.24H995z"/>
	</g>
	<polygon class="st3" points="98.03,400.63 187.9,400.63 187.9,413.47 110.87,413.47 110.87,476.59 194.32,476.59 194.32,489.79    98.03,489.79  "/>
	<polygon class="st3" points="74.14,377.45 211.79,377.45 211.79,438.08 122.64,438.08 122.64,425.24 198.96,425.24 198.96,390.29    86.62,390.29 86.62,604.26 74.14,604.26  "/>
	<polygon class="st3" points="50.25,377.45 63.09,377.45 63.09,614.25 98.03,614.25 98.03,525.09 181.48,525.09 181.48,513.32    98.39,513.32 98.39,500.49 194.32,500.49 194.32,537.93 110.87,537.93 110.87,627.08 50.25,627.08  "/>
</g>
<g id="Layer_7">
	<g class="st0">
		<path class="st1" d="M290.48,445c0-6.84,1.68-13.45,5.05-19.85c3.37-6.4,8.14-11.28,14.32-14.65c6.18-3.37,13.07-5.05,20.69-5.05    c11.77,0,21.41,3.82,28.93,11.46c7.52,7.64,11.28,17.3,11.28,28.97c0,11.77-3.8,21.52-11.39,29.26    c-7.59,7.74-17.15,11.61-28.67,11.61c-7.13,0-13.93-1.61-20.4-4.83c-6.47-3.22-11.39-7.95-14.76-14.17S290.48,453.94,290.48,445z     M311.57,446.1c0,7.72,1.83,13.62,5.49,17.72s8.18,6.15,13.55,6.15c5.37,0,9.88-2.05,13.51-6.15c3.64-4.1,5.46-10.06,5.46-17.87    c0-7.62-1.82-13.48-5.46-17.58c-3.64-4.1-8.14-6.15-13.51-6.15c-5.37,0-9.89,2.05-13.55,6.15S311.57,438.39,311.57,446.1z"/>
		<path class="st1" d="M406.57,484.99h-20.58v-77.78h19.12v11.06c3.27-5.22,6.21-8.67,8.83-10.33c2.61-1.66,5.58-2.49,8.9-2.49    c4.69,0,9.2,1.29,13.55,3.88l-6.37,17.94c-3.47-2.25-6.69-3.37-9.67-3.37c-2.88,0-5.32,0.79-7.32,2.38    c-2,1.59-3.58,4.46-4.72,8.61c-1.15,4.15-1.72,12.84-1.72,26.07V484.99z"/>
		<path class="st1" d="M443.7,407.21h18.97v10.62c6.79-8.25,14.87-12.38,24.24-12.38c4.98,0,9.3,1.03,12.96,3.08s6.67,5.15,9.01,9.3    c3.42-4.15,7.1-7.25,11.06-9.3s8.18-3.08,12.67-3.08c5.71,0,10.55,1.16,14.5,3.48c3.96,2.32,6.91,5.73,8.86,10.22    c1.42,3.32,2.12,8.69,2.12,16.11v49.73h-20.58v-44.46c0-7.71-0.71-12.69-2.12-14.94c-1.9-2.93-4.83-4.39-8.79-4.39    c-2.88,0-5.59,0.88-8.13,2.64c-2.54,1.76-4.37,4.33-5.49,7.73c-1.12,3.39-1.68,8.75-1.68,16.08v37.35h-20.58v-42.63    c0-7.57-0.37-12.45-1.1-14.65s-1.87-3.83-3.41-4.91c-1.54-1.07-3.63-1.61-6.26-1.61c-3.17,0-6.03,0.85-8.57,2.56    c-2.54,1.71-4.36,4.17-5.46,7.4s-1.65,8.57-1.65,16.04v37.79H443.7V407.21z"/>
		<path class="st1" d="M629.81,484.99v-11.65c-2.83,4.15-6.55,7.42-11.17,9.81c-4.61,2.39-9.48,3.59-14.61,3.59    c-5.23,0-9.91-1.15-14.06-3.44c-4.15-2.29-7.15-5.52-9.01-9.67c-1.86-4.15-2.78-9.89-2.78-17.21v-49.22h20.58v35.74    c0,10.94,0.38,17.64,1.13,20.1c0.76,2.47,2.14,4.42,4.14,5.86c2,1.44,4.54,2.16,7.62,2.16c3.52,0,6.67-0.96,9.45-2.89    c2.78-1.93,4.69-4.32,5.71-7.18s1.54-9.85,1.54-20.98v-32.81h20.58v77.78H629.81z"/>
		<path class="st1" d="M670.24,484.99V377.62h20.58v107.37H670.24z"/>
		<path class="st1" d="M727.3,430.94l-18.68-3.37c2.1-7.52,5.71-13.08,10.84-16.7c5.13-3.61,12.74-5.42,22.85-5.42    c9.18,0,16.01,1.09,20.51,3.26c4.49,2.17,7.65,4.93,9.48,8.28c1.83,3.35,2.75,9.48,2.75,18.42l-0.22,24.02    c0,6.84,0.33,11.88,0.99,15.12c0.66,3.25,1.89,6.73,3.7,10.44h-20.36c-0.54-1.37-1.2-3.39-1.98-6.08    c-0.34-1.22-0.59-2.03-0.73-2.42c-3.52,3.42-7.28,5.98-11.28,7.69c-4,1.71-8.28,2.56-12.82,2.56c-8.01,0-14.32-2.17-18.93-6.52    c-4.61-4.35-6.92-9.84-6.92-16.48c0-4.39,1.05-8.31,3.15-11.76c2.1-3.44,5.04-6.08,8.83-7.91c3.78-1.83,9.24-3.43,16.37-4.8    c9.62-1.81,16.28-3.49,20-5.05v-2.05c0-3.96-0.98-6.77-2.93-8.46c-1.95-1.68-5.64-2.53-11.06-2.53c-3.66,0-6.52,0.72-8.57,2.16    C730.23,424.8,728.56,427.33,727.3,430.94z M754.83,447.64c-2.64,0.88-6.81,1.93-12.52,3.15c-5.71,1.22-9.45,2.42-11.21,3.59    c-2.69,1.9-4.03,4.32-4.03,7.25c0,2.88,1.07,5.37,3.22,7.47c2.15,2.1,4.88,3.15,8.2,3.15c3.71,0,7.25-1.22,10.62-3.66    c2.49-1.85,4.13-4.13,4.91-6.81c0.54-1.76,0.81-5.1,0.81-10.03V447.64z"/>
		<path class="st1" d="M831.01,407.21v16.41h-14.06v31.35c0,6.35,0.13,10.05,0.4,11.1c0.27,1.05,0.88,1.92,1.83,2.6    c0.95,0.68,2.11,1.03,3.48,1.03c1.9,0,4.66-0.66,8.28-1.98l1.76,15.97c-4.79,2.05-10.21,3.08-16.26,3.08    c-3.71,0-7.06-0.62-10.03-1.87c-2.98-1.25-5.16-2.86-6.56-4.83c-1.39-1.98-2.36-4.65-2.89-8.02c-0.44-2.39-0.66-7.23-0.66-14.5    v-33.91h-9.45v-16.41h9.45v-15.45l20.65-12.01v27.47H831.01z"/>
		<path class="st1" d="M890.33,460.24l20.51,3.44c-2.64,7.52-6.8,13.25-12.49,17.18c-5.69,3.93-12.81,5.9-21.35,5.9    c-13.53,0-23.54-4.42-30.03-13.26c-5.13-7.08-7.69-16.01-7.69-26.81c0-12.89,3.37-22.99,10.11-30.29    c6.74-7.3,15.26-10.95,25.56-10.95c11.57,0,20.7,3.82,27.39,11.46c6.69,7.64,9.89,19.35,9.59,35.12h-51.56    c0.15,6.1,1.81,10.85,4.98,14.25c3.17,3.39,7.13,5.09,11.87,5.09c3.22,0,5.93-0.88,8.13-2.64S889.21,464.14,890.33,460.24z     M891.5,439.44c-0.15-5.96-1.68-10.48-4.61-13.59c-2.93-3.1-6.49-4.65-10.69-4.65c-4.49,0-8.2,1.64-11.13,4.91    c-2.93,3.27-4.37,7.72-4.32,13.33H891.5z"/>
	</g>
	<g class="st0">
		<path class="st1" d="M423.53,677.08V539.46H460v16.19h-16.92v105.25H460v16.19H423.53z"/>
	</g>
	<g class="st0">
		<path class="st1" d="M681.11,539.46v137.62h-36.47v-16.19h16.92V555.5h-16.92v-16.04H681.11z"/>
	</g>
	<polygon points="455.74,248.11 698.97,248.11 698.97,282.86 490.49,282.86 490.49,453.7 716.35,453.7 716.35,489.4 455.74,489.4     "/>
	<polygon points="391.08,185.37 763.63,185.37 763.63,349.45 522.34,349.45 522.34,314.71 728.89,314.71 728.89,220.12    424.85,220.12 424.85,799.23 391.08,799.23  "/>
	<polygon points="326.41,185.37 361.16,185.37 361.16,826.26 455.74,826.26 455.74,584.96 681.59,584.96 681.59,553.11    456.7,553.11 456.7,518.36 716.35,518.36 716.35,619.7 490.49,619.7 490.49,861 326.41,861  "/>
	<g class="st0">
		<path class="st1" d="M583.74,662h-23.58l-9.38-24.39h-42.92L499,662h-23l41.82-107.37h22.92L583.74,662z M543.82,619.52    l-14.79-39.84l-14.5,39.84H543.82z"/>
		<path class="st1" d="M594.58,662V554.63h21.68V662H594.58z"/>
	</g>
</g>
</svg>